<?xml version="1.0" encoding="UTF-8"?>
<svg id="Layer_1" data-name="Layer 1" xmlns="http://www.w3.org/2000/svg" viewBox="0 0 1280 640">
  <defs>
    <style>
      .cls-1 {
        fill: #101119;
      }

      .cls-2, .cls-3 {
        fill: #e7e7e7;
      }

      .cls-4 {
        fill: none;
        stroke: lime;
        stroke-miterlimit: 10;
        stroke-width: 3px;
      }

      .cls-5, .cls-6 {
        fill: lime;
        font-size: 36px;
      }

      .cls-5, .cls-3 {
        font-family: Verdana-Bold, Verdana;
        font-weight: 700;
      }

      .cls-7 {
        fill: #fff;
      }

      .cls-7, .cls-6 {
        font-family: Verdana, Verdana;
      }

      .cls-7, .cls-3 {
        font-size: 32px;
      }

      .cls-8 {
        letter-spacing: -.15em;
      }

      .cls-9 {
        letter-spacing: -.02em;
      }
    </style>
  </defs>
  <rect class="cls-1" width="1280" height="640"/>
  <g id="Layer_1-2" data-name="Layer 1-2">
    <g>
      <path class="cls-2" d="M573.27,286.06s64.28,85.25,133.46,0c0,0-59.81-84.81-133.46,0h0ZM609.63,286.16c0-16.84,13.65-30.48,30.48-30.48s30.48,13.65,30.48,30.48-13.65,30.48-30.48,30.48-30.48-13.65-30.48-30.48h0Z"/>
      <g>
        <path class="cls-2" d="M640,193.97c-50.83,0-92.18,41.35-92.18,92.18s41.35,92.18,92.18,92.18,92.18-41.35,92.18-92.18-41.35-92.18-92.18-92.18ZM640,363.47c-42.63,0-77.31-34.68-77.31-77.31s34.68-77.31,77.31-77.31,77.31,34.68,77.31,77.31-34.68,77.31-77.31,77.31Z"/>
        <path class="cls-2" d="M560.28,162.95h0l10.91,18.89c1.38,2.39,3.88,3.72,6.44,3.72,1.26,0,2.54-.32,3.71-1,1.55-.9,2.66-2.27,3.25-3.84.75-2.01.63-4.32-.52-6.32l-21.82-37.79h0l-12.17-21.08c-2.06-3.55-6.6-4.78-10.16-2.72-3.55,2.06-4.78,6.6-2.72,10.16l23.08,39.97h0Z"/>
        <path class="cls-2" d="M469.38,196.24l39.97,23.08h0l18.89,10.91c1.17.68,2.45,1,3.71,1s2.55-.33,3.67-.97c1.12-.63,2.08-1.56,2.78-2.76,1.92-3.33.97-7.54-2.08-9.74-.2-.15-.42-.28-.64-.42l-37.79-21.82h0l-21.08-12.17c-3.55-2.06-8.1-.83-10.16,2.72s-.83,8.1,2.72,10.16h0Z"/>
        <path class="cls-2" d="M711.78,395.6l-2.96-5.12c-.13-.23-.27-.44-.42-.64h0c-2.2-3.06-6.41-4.01-9.74-2.08-.22.13-.44.27-.64.42-3.06,2.2-4.01,6.41-2.08,9.74l.51.88,10.4,18.01h0s10.9,18.89,10.9,18.89h0l12.17,21.07c1.38,2.39,3.88,3.72,6.44,3.72,1.26,0,2.54-.32,3.71-1,3.55-2.06,4.78-6.6,2.72-10.16l-31.03-53.75v.02Z"/>
        <path class="cls-2" d="M810.63,376.08l-58.88-33.99c-3.55-2.06-8.1-.83-10.16,2.72-1.79,3.12-1.09,6.99,1.5,9.28.37.32.78.62,1.22.88l18.89,10.91h0l18.88,10.9h0l21.07,12.17c1.17.68,2.45,1,3.71,1,2.57,0,5.07-1.34,6.44-3.72,2.06-3.55.83-8.1-2.72-10.16h.03Z"/>
        <path class="cls-2" d="M832.73,278.73h-67.99c-3.6,0-6.59,2.55-7.28,5.93-.1.48-.15.98-.15,1.5,0,3.33,2.2,6.16,5.22,7.1.7.22,1.44.33,2.21.33h67.98c4.1,0,7.43-3.33,7.43-7.43s-3.33-7.43-7.43-7.43h0Z"/>
        <path class="cls-2" d="M640,168.85c3.6,0,6.59-2.55,7.28-5.93.1-.48.15-.98.15-1.5v-67.99c0-4.1-3.33-7.43-7.43-7.43s-7.43,3.33-7.43,7.43v67.98c0,.52.05,1.02.15,1.5.69,3.39,3.69,5.93,7.28,5.93h0Z"/>
        <path class="cls-2" d="M600.54,167.59c.89,3.32,3.89,5.51,7.18,5.51.64,0,1.29-.08,1.93-.25,3.96-1.06,6.32-5.14,5.26-9.11l-5.64-21.07c-1.06-3.97-5.14-6.32-9.11-5.26-3.96,1.06-6.32,5.14-5.26,9.11l5.64,21.07Z"/>
        <path class="cls-2" d="M546.54,203.22c1.46,1.46,3.36,2.18,5.26,2.18s3.81-.73,5.26-2.18c2.9-2.9,2.9-7.61,0-10.51l-15.43-15.43c-2.9-2.9-7.61-2.9-10.51,0s-2.9,7.61,0,10.51l15.43,15.43Z"/>
        <path class="cls-2" d="M521.44,246.69l-21.07-5.64c-3.96-1.06-8.04,1.29-9.11,5.26-1.06,3.96,1.29,8.04,5.26,9.11l21.07,5.64c.64.17,1.29.25,1.93.25,3.29,0,6.29-2.19,7.18-5.51,1.06-3.97-1.29-8.05-5.26-9.11Z"/>
        <path class="cls-2" d="M493.45,293.6h21.82c2.06,0,3.91-.83,5.26-2.18.03-.03.06-.06.09-.1.13-.14.27-.28.39-.43.76-.92,1.3-2.02,1.55-3.23.1-.48.15-.98.15-1.5,0-.71-.11-1.4-.29-2.05-.01-.06-.03-.11-.04-.16-.13-.43-.31-.85-.52-1.24-.01-.03-.03-.06-.04-.09-.08-.15-.17-.29-.26-.43-.04-.06-.07-.12-.11-.18-.13-.19-.27-.37-.41-.55,0,0,0-.01-.01-.02-.11-.13-.22-.25-.33-.37-.05-.05-.09-.11-.14-.16-.05-.05-.11-.1-.16-.14-.12-.11-.24-.23-.37-.34,0,0-.01,0-.02-.01-.18-.15-.36-.28-.55-.41-.06-.04-.12-.07-.18-.11-.14-.09-.28-.18-.43-.26-.03-.01-.06-.03-.09-.04-.4-.2-.81-.38-1.24-.52-.06-.01-.11-.03-.16-.04-.65-.18-1.34-.29-2.05-.29h-68.01c-4.1,0-7.43,3.33-7.43,7.43s3.33,7.43,7.43,7.43h46.17Z"/>
        <path class="cls-2" d="M517.59,311.26l-21.07,5.64c-3.96,1.06-6.32,5.14-5.26,9.11.89,3.32,3.89,5.51,7.18,5.51.64,0,1.29-.08,1.93-.25l21.07-5.64c3.96-1.06,6.32-5.14,5.26-9.11-1.06-3.96-5.14-6.32-9.11-5.26Z"/>
        <path class="cls-2" d="M539.16,350.46c.49-1.84.28-3.86-.74-5.64-2.06-3.55-6.6-4.78-10.16-2.72l-37.79,21.82h0l-21.07,12.17c-3.55,2.06-4.78,6.6-2.72,10.16,1.38,2.39,3.88,3.72,6.44,3.72,1.26,0,2.54-.32,3.71-1l39.97-23.08h0l18.89-10.91c1.78-1.02,2.97-2.68,3.46-4.51h.01Z"/>
        <path class="cls-2" d="M541.63,395.05l15.43-15.43c2.9-2.9,2.9-7.61,0-10.51-2.9-2.9-7.61-2.9-10.51,0l-15.43,15.43c-2.9,2.9-2.9,7.61,0,10.51,1.46,1.46,3.36,2.18,5.26,2.18s3.81-.73,5.26-2.18Z"/>
        <path class="cls-2" d="M609.65,399.48c-3.97-1.06-8.05,1.29-9.11,5.26l-5.64,21.07c-1.06,3.96,1.29,8.05,5.26,9.11.64.17,1.29.25,1.93.25,3.29,0,6.29-2.19,7.18-5.51l5.64-21.07c1.06-3.97-1.29-8.05-5.26-9.11Z"/>
        <path class="cls-2" d="M647.29,409.4l-.06-.25c-.04-.15-.07-.3-.12-.45-.94-3.03-3.77-5.23-7.1-5.23-.71,0-1.4.11-2.05.29-.06.01-.11.03-.16.04-.43.13-.85.31-1.24.52-.03.01-.06.03-.09.04-.15.08-.29.17-.44.26-.06.04-.12.07-.18.11-.19.13-.37.27-.55.41,0,0-.01,0-.02.01-.13.11-.25.22-.37.34-.05.05-.11.09-.16.14s-.09.11-.14.16c-.11.12-.23.24-.33.37,0,0,0,.01-.01.02-.15.18-.28.36-.41.55-.04.06-.07.12-.11.18-.09.14-.18.28-.26.43-.01.03-.03.06-.04.09-.2.4-.38.81-.52,1.24-.01.06-.03.11-.04.16-.18.65-.29,1.34-.29,2.05v43.63h0v24.34c0,4.1,3.33,7.43,7.43,7.43s7.43-3.33,7.43-7.43v-67.98c0-.52-.05-1.02-.15-1.5l-.02.02Z"/>
        <path class="cls-2" d="M679.48,404.73c-1.06-3.97-5.14-6.32-9.11-5.26-3.96,1.06-6.32,5.14-5.26,9.11l5.64,21.07c.89,3.32,3.89,5.51,7.18,5.51.64,0,1.29-.08,1.93-.25,3.96-1.06,6.32-5.14,5.26-9.11l-5.64-21.07Z"/>
        <path class="cls-2" d="M733.47,369.11c-2.9-2.9-7.61-2.9-10.51,0-2.9,2.9-2.9,7.61,0,10.51l15.43,15.43c1.45,1.46,3.36,2.18,5.26,2.18s3.81-.73,5.26-2.18c2.9-2.9,2.9-7.61,0-10.51l-15.43-15.43Z"/>
        <path class="cls-2" d="M758.58,325.63l21.07,5.64c.64.17,1.29.25,1.93.25,3.29,0,6.29-2.19,7.18-5.51,1.06-3.96-1.29-8.05-5.26-9.11l-21.07-5.64c-3.97-1.06-8.05,1.29-9.11,5.26-1.06,3.96,1.29,8.05,5.26,9.11Z"/>
        <path class="cls-2" d="M762.42,261.06l21.07-5.64c3.96-1.06,6.32-5.14,5.26-9.11-1.06-3.96-5.14-6.32-9.11-5.26l-21.07,5.64c-3.96,1.06-6.32,5.14-5.26,9.11.89,3.32,3.89,5.51,7.18,5.51.64,0,1.29-.08,1.93-.25Z"/>
        <path class="cls-2" d="M738.38,177.27l-15.42,15.43c-2.9,2.9-2.9,7.61,0,10.51,1.45,1.45,3.36,2.18,5.26,2.18s3.81-.73,5.26-2.18l15.42-15.43c2.9-2.9,2.9-7.61,0-10.51-2.9-2.9-7.61-2.9-10.51,0Z"/>
        <path class="cls-2" d="M670.37,172.85c.64.17,1.29.25,1.93.25,3.29,0,6.29-2.19,7.18-5.51l5.64-21.07c1.06-3.96-1.29-8.05-5.26-9.11-3.97-1.06-8.05,1.29-9.11,5.26l-5.64,21.07c-1.06,3.96,1.29,8.05,5.26,9.11Z"/>
        <path class="cls-2" d="M581.99,388.16c-.2-.15-.42-.28-.64-.42-3.55-2.06-8.1-.83-10.16,2.72l-21.82,37.79h0s-12.17,21.09-12.17,21.09c-2.06,3.55-.83,8.1,2.72,10.16,1.17.68,2.45,1,3.71,1,2.57,0,5.07-1.34,6.44-3.72l23.08-39.97h0l10.91-18.89c.64-1.11.96-2.32,1-3.52.06-2.4-1.04-4.75-3.08-6.22h0Z"/>
        <path class="cls-2" d="M743.68,217.76c-3.06,2.2-4.01,6.41-2.08,9.74,1.38,2.39,3.88,3.72,6.44,3.72.32,0,.64-.02.95-.06.13-.01.26-.05.4-.08.18-.04.37-.06.54-.11.62-.16,1.24-.42,1.82-.75l18.89-10.91h0l18.89-10.91h0l21.08-12.17c3.55-2.06,4.78-6.6,2.72-10.16-2.06-3.55-6.6-4.78-10.16-2.72l-58.87,33.99c-.22.13-.44.27-.64.42h.01Z"/>
        <path class="cls-2" d="M696.92,183.19c.32.35.69.68,1.1.97.2.15.42.28.64.41,1.17.68,2.45,1,3.71,1,1.6,0,3.19-.52,4.48-1.5.78-.59,1.45-1.33,1.96-2.23l10.91-18.89,10.91-18.89h0s12.17-21.09,12.17-21.09c2.06-3.55.83-8.1-2.72-10.16s-8.1-.83-10.16,2.72l-33.99,58.87c-1.67,2.89-1.18,6.44.97,8.76,0,0,0,0,0,0h.01Z"/>
      </g>
      <g id="Solid-2">
        <path class="cls-2" d="M661.58,305.95c.11-.09.13-.25.06-.37l-8.3-13c-1.75-2.65-4.34-4.63-7.36-5.6l-.85-.4c-.08,2.13-1.48,4-3.5,4.68l14.37,14.37c1.51,1.52,3.93,1.65,5.61.32h-.01Z"/>
        <circle class="cls-2" cx="639.98" cy="286.39" r="1.22"/>
        <path class="cls-2" d="M635.38,286.39c0,2.54,2.06,4.59,4.59,4.59s4.59-2.06,4.59-4.59-2.06-4.59-4.59-4.59h0c-2.53,0-4.59,2.06-4.59,4.59ZM639.98,284.6c.98,0,1.78.8,1.78,1.78s-.8,1.78-1.78,1.78-1.78-.8-1.78-1.78.8-1.78,1.78-1.78Z"/>
        <path class="cls-2" d="M618.36,266.82c-.11.09-.13.25-.06.37l8.3,13c1.75,2.65,4.34,4.63,7.36,5.6l.85.4c.08-2.13,1.48-4,3.5-4.68l-14.37-14.37c-1.51-1.52-3.93-1.65-5.61-.32h.01Z"/>
        <path class="cls-2" d="M639.98,268.13c-3.14,0-6.23.81-8.97,2.36-.13.07-.19.24-.12.38.07.13.24.19.38.12,0,0,.01,0,.01,0,6.93-3.91,15.61-2.72,21.23,2.92.11.11.28.11.4,0s.11-.28,0-.4h0c-3.42-3.45-8.08-5.38-12.93-5.37h0Z"/>
        <path class="cls-2" d="M627.04,298.88c-.11.11-.11.29,0,.4h0c5.79,5.81,14.76,7.04,21.9,3.01.13-.07.19-.24.12-.38s-.24-.19-.38-.12c0,0-.01,0-.01,0-6.93,3.91-15.61,2.72-21.23-2.92-.11-.11-.29-.11-.4,0h0Z"/>
        <path class="cls-2" d="M646.67,275.56c.08-.13.04-.3-.1-.38-3.53-2.08-7.85-2.38-11.64-.79-.14.06-.21.23-.15.37s.23.21.37.15c3.62-1.52,7.74-1.24,11.13.76.13.08.3.04.38-.1h0Z"/>
        <path class="cls-2" d="M633.28,297.22c-.08.13-.04.3.1.38,3.53,2.08,7.85,2.38,11.64.79.14-.06.21-.23.15-.37-.06-.14-.23-.21-.37-.15h0c-3.62,1.52-7.74,1.24-11.13-.76-.13-.08-.3-.04-.38.1h0Z"/>
        <path class="cls-2" d="M639.98,309.88c4.54,0,8.99-1.31,12.8-3.8.13-.08.17-.25.09-.39-.08-.13-.25-.17-.39-.09h0c-3.72,2.42-8.05,3.71-12.49,3.71-12.65,0-22.94-10.29-22.94-22.94,0-2.27.33-4.54,1-6.7.05-.15-.04-.3-.18-.35-.15-.05-.3.04-.35.18h0c-.68,2.23-1.02,4.54-1.02,6.87,0,12.96,10.54,23.5,23.5,23.5h0Z"/>
        <path class="cls-2" d="M639.98,262.89c-4.54,0-8.99,1.31-12.8,3.8-.13.08-.17.25-.09.39.08.13.25.17.39.09h0c3.72-2.42,8.05-3.71,12.49-3.71,12.65,0,22.94,10.29,22.94,22.94,0,2.27-.33,4.54-1,6.7-.05.15.04.3.18.35.15.05.3-.04.35-.18h0c.68-2.23,1.02-4.54,1.02-6.87,0-12.96-10.54-23.5-23.5-23.5h0Z"/>
      </g>
    </g>
  </g>
  <text class="cls-3" transform="translate(32.02 570)"><tspan x="0" y="0">Real-Time Drone </tspan><tspan x="0" y="38.4">Object Detection &amp; Tracking</tspan></text>
  <rect class="cls-4" x="415" y="62.5" width="450" height="450"/>
  <text class="cls-5" transform="translate(881.28 85.92)"><tspan x="0" y="0">ID: Icarus Eye</tspan></text>
  <text class="cls-6" transform="translate(881.26 132.57)"><tspan x="0" y="0">Confidence:</tspan><tspan class="cls-8" x="215.51" y="0"> </tspan><tspan class="cls-9" x="222.76" y="0">100</tspan></text>
  <text class="cls-7" transform="translate(1138.58 623.37)"><tspan x="0" y="0">FPS: 59</tspan></text>
</svg>